<svg width="524" height="98" viewBox="0 0 524 98" fill="none" xmlns="http://www.w3.org/2000/svg">
<path d="M0.0687256 75.0465V5.17099C0.313064 5.17099 0.546544 5.13841 0.785453 5.13841C8.81606 5.13841 16.8467 5.0461 24.8773 5.13841C32.1043 5.27415 39.1629 6.30038 45.8144 9.30303C56.4241 14.1138 62.5 22.3833 64.1018 33.9052C64.8945 39.6065 64.7914 45.3077 63.0647 50.8298C60.5616 58.8495 55.5174 64.882 48.3338 69.1498C43.2496 72.1349 37.587 74.0009 31.7242 74.623C29.2521 74.8944 26.767 75.0303 24.28 75.0302C16.4992 75.0791 8.71832 75.0302 0.932056 75.0302L0.0687256 75.0465ZM15.5164 60.7934H16.0919C18.4213 60.7934 20.7507 60.7934 23.08 60.7934C26.8834 60.849 30.6769 60.3905 34.3576 59.4305C40.3303 57.7527 44.7882 54.2397 47.0632 48.3212C48.4804 44.6453 48.7356 40.7956 48.3555 36.9188C48.1663 34.5449 47.4902 32.2356 46.3691 30.1346C45.2481 28.0336 43.7063 26.1861 41.8398 24.7072C37.6589 21.3191 32.707 19.9019 27.451 19.5816C23.5796 19.3318 19.7027 19.4567 15.815 19.3969C15.7067 19.4073 15.5995 19.4273 15.4947 19.4567L15.5164 60.7934Z" fill="white"/>
<path d="M308.012 27.161H321.624V33.4975C321.858 33.2423 321.977 33.1283 322.08 33.0088C325.816 28.4315 330.616 25.9936 336.54 25.9176C342.051 25.8415 347.084 27.3456 351.428 30.8043C355.891 34.3771 358.487 39.1119 359.529 44.6611C360.925 52.0292 359.969 59.0716 356.185 65.609C353.394 70.4307 349.435 73.9437 344.006 75.4695C338.837 76.9101 333.33 76.5266 328.411 74.3835C326.43 73.5243 324.696 72.1821 323.367 70.4795C323.231 70.3166 323.09 70.1646 322.824 69.8551V97.5469H308.012V27.161ZM345.298 51.1225C345.227 50.27 345.217 49.4067 345.075 48.5596C344.364 44.3624 342.252 41.2186 338.131 39.6983C335.962 38.9479 333.644 38.7373 331.376 39.0847C327.575 39.568 324.621 41.4086 322.965 44.9217C322.047 46.8107 321.562 48.8808 321.545 50.9811C321.528 53.0815 321.98 55.1591 322.868 57.0626C323.473 58.4866 324.408 59.7465 325.596 60.7387C326.783 61.7308 328.189 62.4267 329.698 62.7693C332.274 63.4313 334.979 63.3994 337.539 62.677C339.141 62.2448 340.604 61.4048 341.785 60.239C344.315 57.7305 345.26 54.6084 345.298 51.1225Z" fill="white"/>
<path d="M251.466 68.0377L262.472 55.9347L263.135 56.7166C265.333 59.2496 268.238 61.0681 271.477 61.9388C274.716 62.8095 278.141 62.6927 281.314 61.6034C282.605 61.1747 283.784 60.4601 284.761 59.5129C285.387 58.8961 285.872 58.1513 286.183 57.3295C286.495 56.5077 286.624 55.6284 286.564 54.7517C286.504 53.8751 286.255 53.0219 285.834 52.2504C285.413 51.479 284.831 50.8077 284.126 50.2824C281.862 48.5611 279.239 47.5675 276.59 46.6662C273.332 45.5802 270.009 44.5648 266.767 43.3757C264.208 42.4548 261.83 41.0931 259.741 39.3523C256.483 36.6374 254.398 33.2655 253.969 28.9706C253.557 24.8548 253.85 20.826 255.598 17.0251C258.085 11.6551 262.228 8.01716 267.641 5.78011C272.613 3.78169 277.985 2.98364 283.323 3.45074C287.443 3.67984 291.488 4.64531 295.268 6.30136C297.493 7.32728 299.564 8.65964 301.42 10.2597L301.925 10.694L291.369 22.2323C290.696 21.6241 290.104 21.0051 289.431 20.4947C287.362 18.9147 284.935 18.2034 282.416 17.8287C279.249 17.2982 275.997 17.8531 273.185 19.4034C270.199 21.0323 269.069 24.2087 270.291 27.2765C270.717 28.301 271.444 29.172 272.376 29.7742C274.695 31.3705 277.323 32.2664 279.978 33.0972C283.018 34.0474 286.092 34.9053 289.078 35.9913C292.144 37.0582 294.935 38.7921 297.25 41.0681C300.161 43.987 301.835 47.915 301.925 52.0362C302.115 55.837 301.778 59.5835 300.22 63.1183C299.07 65.8272 297.354 68.2587 295.187 70.2497C293.02 72.2407 290.452 73.7451 287.655 74.662C277.958 78.0393 268.342 77.6918 258.981 73.2991C256.383 72.0123 253.987 70.3532 251.868 68.3743C251.754 68.2549 251.624 68.168 251.466 68.0377Z" fill="white"/>
<path d="M218.008 75.0145H203.141V0.453156H217.97V33.4389L218.122 33.4769C218.296 33.1511 218.453 32.8199 218.638 32.505C220.197 29.8609 222.675 27.8836 225.599 26.9503C230.393 25.2698 235.645 25.4637 240.303 27.4933C244.647 29.2906 246.976 32.8796 248.16 37.2669C249.039 40.8547 249.448 44.5417 249.376 48.235C249.408 56.9932 249.376 65.7459 249.376 74.4987V75.0145H234.52V74.1403C234.52 66.3595 234.553 58.5732 234.52 50.7924C234.477 48.8451 234.308 46.9027 234.015 44.9771C233.862 44.0856 233.559 43.2265 233.119 42.436C232.675 41.4751 231.979 40.6522 231.105 40.0539C230.232 39.4556 229.213 39.1043 228.156 39.037C225.93 38.8415 223.764 38.9718 221.831 40.2478C219.599 41.7247 218.671 43.978 218.328 46.492C218.122 48.0618 218.019 49.6435 218.019 51.2268C218.019 58.8719 218.019 66.517 218.019 74.1675L218.008 75.0145Z" fill="white"/>
<path d="M115.793 55.6416H81.5476C81.9765 59.2632 84.7131 63.102 88.5465 64.3292C93.7319 65.9581 98.787 64.959 103.158 59.1818L113.534 66.7834C111.536 69.3377 109.036 71.4554 106.188 73.0059C96.816 78.1913 84.6262 76.9859 76.7097 71.3172C73.9183 69.3824 71.5846 66.8597 69.8727 63.9264C68.1607 60.9931 67.1121 57.7204 66.8004 54.3384C66.1216 48.2897 67.1153 42.5776 70.46 37.3922C74.1522 31.6855 79.468 28.2973 85.9891 26.7335C90.4579 25.58 95.1436 25.5576 99.6232 26.6684C106.85 28.5525 111.487 33.2655 114.034 40.1722C115.179 43.4432 115.771 46.882 115.788 50.3475C115.82 52.0851 115.793 53.8226 115.793 55.6416ZM100.926 45.5639C101.02 43.7527 100.505 41.9622 99.4658 40.4763C97.5273 37.7614 94.8287 36.5668 91.5329 36.6754C88.237 36.784 85.3755 37.9949 83.2742 40.6391C82.1633 42.0535 81.5285 43.7831 81.4607 45.5802L100.926 45.5639Z" fill="white"/>
<path d="M496.419 55.6299H462.065C463.047 59.8488 465.214 63.0741 469.4 64.3718C474.347 65.9084 479.342 65.0288 483.789 59.1701L494.155 66.7717C492.807 68.5488 491.191 70.1058 489.366 71.387C484.102 75.1014 477.68 76.801 471.268 76.1761C466.412 75.8818 461.723 74.2878 457.694 71.5608C454.805 69.6301 452.384 67.0791 450.607 64.0938C448.83 61.1086 447.741 57.7644 447.421 54.305C446.878 49.5214 447.388 44.8681 449.419 40.4537C451.921 34.8498 456.51 30.4433 462.211 28.1716C467.859 25.7256 474.151 25.1917 480.129 26.6513C487.427 28.4594 492.102 33.2376 494.654 40.2257C495.79 43.4743 496.379 46.889 496.397 50.3304C496.451 52.0354 496.419 53.7892 496.419 55.6299ZM481.558 45.5631C481.645 43.7518 481.129 41.9625 480.091 40.4754C478.153 37.7606 475.454 36.566 472.153 36.6746C468.852 36.7832 466.001 37.9941 463.9 40.6383C462.789 42.0527 462.154 43.7823 462.086 45.5794L481.558 45.5631Z" fill="white"/>
<path d="M128.602 41.7742L120.609 33.5753C122.756 31.5628 125.227 29.9272 127.918 28.7374C133.137 26.4778 138.83 25.5289 144.5 25.9736C147.26 26.0733 149.986 26.6065 152.58 27.5537C158.21 29.7256 161.338 34.0097 162.657 39.7543C163.395 43.0917 163.759 46.5009 163.743 49.9188C163.787 58.0635 163.743 66.2515 163.743 74.4179V75.0043H150.066V69.1022C149.903 69.1999 149.81 69.2216 149.772 69.2813C147.345 73.0062 143.756 74.912 139.527 75.797C135.106 76.8063 130.48 76.4115 126.294 74.6677C120.322 72.1211 116.993 66.7945 117.639 59.7358C118.242 53.1224 122.238 49.3216 128.102 47.1062C131.416 45.8817 134.892 45.15 138.419 44.9343C142.089 44.6846 145.776 44.6357 149.458 44.5C149.631 44.5 149.81 44.5 150.001 44.4619C150.05 43.2556 149.811 42.0547 149.302 40.9599C148.792 39.8651 148.029 38.9081 147.074 38.1689C144.837 36.3825 142.252 35.8069 139.44 35.997C135.166 36.2902 131.762 38.2992 128.863 41.3235C128.763 41.4662 128.676 41.617 128.602 41.7742ZM150.201 54.1052C150.06 54.0659 149.917 54.035 149.772 54.0129C146.797 54.1052 143.8 54.0889 140.841 54.3278C138.319 54.4507 135.888 55.3033 133.842 56.7821C132.066 58.1178 131.577 59.9205 131.93 62.0055C132.24 63.8136 133.527 64.7584 135.096 65.4154C138.31 66.7674 141.47 66.295 144.565 65.0244C147.014 64.0199 148.996 62.4018 149.626 59.7521C150.066 57.9332 150.028 56.0056 150.201 54.1052Z" fill="white"/>
<path d="M372.55 41.7692L364.557 33.5757C366.53 31.711 368.789 30.1731 371.247 29.0201C376.845 26.3921 382.747 25.5396 388.882 25.9849C392.059 26.2129 395.154 26.7722 398.032 28.2111C402.625 30.5079 405.21 34.3467 406.437 39.2009C407.197 42.2761 407.582 45.432 407.582 48.5998C407.637 57.2385 407.626 65.8827 407.642 74.5214C407.642 74.6572 407.642 74.7875 407.642 74.9721H393.997V69.108C393.834 69.2003 393.742 69.222 393.704 69.2763C391.293 72.9794 387.731 74.8852 383.529 75.7594C379.089 76.7852 374.439 76.396 370.231 74.6463C364.258 72.1052 360.925 66.784 361.544 59.7199C362.168 53.1228 366.148 49.3219 372.007 47.1066C375.322 45.8878 378.797 45.1562 382.323 44.9347C385.95 44.6849 389.594 44.6361 393.226 44.5003H393.932C393.985 43.2894 393.747 42.0835 393.239 40.9831C392.731 39.8827 391.967 38.9198 391.011 38.1747C388.768 36.3937 386.184 35.8127 383.377 36.0028C379.103 36.3014 375.694 38.305 372.799 41.3293C372.705 41.4696 372.622 41.6166 372.55 41.7692ZM394.057 53.8829C390.756 54.035 387.639 54.0784 384.539 54.3553C382.088 54.5065 379.731 55.3542 377.746 56.7987C376.025 58.1073 375.531 59.872 375.84 61.9081C376.112 63.7434 377.42 64.6881 378.989 65.4157C382.893 67.2293 389.083 65.7035 391.776 62.8529C392.846 61.8245 393.55 60.4744 393.78 59.0086C393.975 57.3851 393.97 55.7345 394.057 53.8829Z" fill="white"/>
<path d="M200.622 38.939H187.645V39.6828C187.645 44.7922 187.645 49.9071 187.645 55.0219C187.646 56.4432 187.768 57.8618 188.009 59.2625C188.481 61.8579 189.996 63.2371 192.608 63.6063C194.654 63.8669 196.73 63.7695 198.743 63.3185C199.386 63.1319 200.011 62.8903 200.611 62.5964C200.638 62.7763 200.654 62.9576 200.66 63.1394C200.66 66.8262 200.66 70.513 200.66 74.1998C200.688 74.3963 200.637 74.5959 200.518 74.7547C200.399 74.9135 200.221 75.0186 200.025 75.0468C194.443 76.5713 188.57 76.6889 182.932 75.3889C176.362 73.5536 172.806 68.8732 172.795 62.0697C172.795 54.6527 172.795 47.232 172.795 39.8077V38.9444H163.39V27.1564H172.822V12.9413H187.64V27.1075H200.622V38.939Z" fill="white"/>
<path d="M452.845 31.1373C450.926 32.5769 449.23 34.2912 447.811 36.225C446.444 38.1234 445.347 40.2031 444.554 42.404C443.468 41.6004 442.528 40.6557 441.383 40.0475C435.263 36.7897 427.39 40.4548 425.756 47.3125C424.892 50.9342 425.072 54.5124 426.939 57.8408C428.72 61.0118 431.528 62.6733 435.084 63.086C436.05 63.1963 437.024 63.2254 437.994 63.1728C440.291 63.0534 442.083 61.8588 443.685 60.3222C443.924 60.0887 444.135 59.8281 444.445 59.4969C446.035 64.1225 448.985 68.1596 452.91 71.0786C452.606 71.3283 452.367 71.5564 452.068 71.7736C449.353 73.8912 446.242 75.0314 442.925 75.6558C435.285 77.1382 428.031 76.1174 421.439 71.8876C415.092 67.8153 411.53 61.8806 410.65 54.3875C410.107 49.5604 410.596 44.8583 412.665 40.4113C415.635 34.0151 420.543 29.7473 427.189 27.5157C434.202 25.0543 441.889 25.3513 448.691 28.3464C450.235 29.0137 451.643 29.9598 452.845 31.1373Z" fill="white"/>
</svg>
